<svg width="180" height="260" viewBox="0 0 180 260" xmlns="http://www.w3.org/2000/svg" role="img" aria-labelledby="title">
  <title id="title">Isotipo IUCA</title>
  <g fill="none" fill-rule="evenodd">
    <g fill="#69b12c">
      <polygon points="30 0 90 0 60 60"/>
      <polygon points="0 90 60 60 60 120"/>
      <polygon points="90 90 60 60 60 120"/>
      <polygon points="30 150 90 150 60 210"/>
    </g>
    <g fill="#1195d2">
      <polygon points="120 90 180 90 150 150"/>
      <polygon points="90 180 150 150 150 210"/>
      <polygon points="120 240 150 180 180 240"/>
      <polygon points="60 210 120 210 90 260"/>
    </g>
    <polygon fill="#ffffff" points="60 60 90 90 60 120 30 90"/>
    <polygon fill="#ffffff" points="120 90 150 120 120 150 90 120"/>
  </g>
</svg>
