<?xml version="1.0" encoding="UTF-8"?>
<svg width="640" height="180" viewBox="0 0 640 180" xmlns="http://www.w3.org/2000/svg">
  <defs>
    <linearGradient id="iuca-green" x1="0" y1="0" x2="1" y2="1">
      <stop offset="0%" stop-color="#8AC640"/>
      <stop offset="100%" stop-color="#4CA047"/>
    </linearGradient>
    <linearGradient id="iuca-blue" x1="0" y1="0" x2="1" y2="1">
      <stop offset="0%" stop-color="#4FC4F5"/>
      <stop offset="100%" stop-color="#1C8ECE"/>
    </linearGradient>
    <style>
      .brand-primary {
        font-family: 'Poppins', 'Segoe UI', 'Helvetica Neue', Arial, sans-serif;
        font-weight: 700;
        letter-spacing: 0.16em;
      }
      .brand-secondary {
        font-family: 'Poppins', 'Segoe UI', 'Helvetica Neue', Arial, sans-serif;
        font-weight: 500;
        letter-spacing: 0.42em;
      }
    </style>
  </defs>
  <rect width="640" height="180" fill="none"/>

  <!-- Geometric figure -->
  <g transform="translate(20 20)">
    <polygon points="0,60 30,30 60,60 30,90" fill="url(#iuca-blue)" />
    <polygon points="30,30 60,0 90,30 60,60" fill="url(#iuca-green)" />
    <polygon points="60,60 90,30 120,60 90,90" fill="url(#iuca-blue)" />
    <polygon points="30,90 60,60 90,90 60,120" fill="url(#iuca-green)" />
  </g>

  <!-- Typography -->
  <text x="180" y="75" font-size="32" class="brand-primary" fill="#1f4c7c">
    INSTITUTO UNIVERSITARIO
  </text>
  <text x="180" y="115" font-size="20" class="brand-secondary" fill="#45a5d7">
    DE CIENCIAS AMBIENTALES
  </text>

  <!-- Simplified hummingbird -->
  <g transform="translate(510 20)">
    <path d="M20 36 C34 26, 54 24, 70 30 C58 32,50 42,52 54 C44 44,30 42,18 44 C26 48,34 54,36 64 C26 56,14 56,6 60 C14 46,24 40,20 36"
          fill="#41a7d7" />
    <path d="M66 30 C76 28, 88 22, 94 12 C90 28,84 42,78 52"
          fill="#1c8ece" />
    <circle cx="22" cy="39" r="3" fill="#0d3454" />
  </g>
</svg>
