<svg xmlns="http://www.w3.org/2000/svg" viewBox="0 0 120 120" role="img" aria-labelledby="title">
  <title>IUCA Marca</title>
  <defs>
    <linearGradient id="g1" x1="0" y1="0" x2="1" y2="1">
      <stop offset="0%" stop-color="#6aae4f"/>
      <stop offset="100%" stop-color="#4aaad8"/>
    </linearGradient>
  </defs>
  <rect width="120" height="120" rx="18" fill="url(#g1)"/>
  <g transform="translate(20 20)" fill="#f7fbff">
    <polygon points="20,0 40,0 30,17"/>
    <polygon points="0,20 17,30 0,40"/>
    <polygon points="20,40 40,40 30,23"/>
    <polygon points="40,20 23,30 40,40"/>
    <polygon points="60,10 80,0 70,20"/>
    <polygon points="70,40 90,50 70,60"/>
  </g>
  <path d="M58 72c8 4 15 4 26-2-4 10-12 16-22 16-10 0-18-6-22-16 11 6 18 6 26 2z" fill="#e7f4ff"/>
</svg>
